<?xml version="1.0" encoding="UTF-8"?>
<svg id="Camada_2" data-name="Camada 2" xmlns="http://www.w3.org/2000/svg" viewBox="0 0 159.85 94.15">
  <defs>
    <style>
      .cls-1 {
        fill: #78648e;
      }
    </style>
  </defs>
  <g id="Camada_1-2" data-name="Camada 1">
    <g>
      <polygon class="cls-1" points="47.1 17.39 25.77 58.91 0 44.83 17.08 0 47.1 17.39"/>
      <polygon class="cls-1" points="159.85 44.81 134.69 58.32 113.57 16.25 141.13 .05 159.85 44.81"/>
      <path class="cls-1" d="M121.83,60.12c-.41.69,1.2,3.86,1.02,5.73-.14,1.41-1.44,4.43-2.49,5.41-2.49,2.35-7.29,1.41-7.57,1.7s-.27,4.17-3.43,6.39c-2.71,1.91-6.97,1.2-7.23,1.47-.18.18-.14,3.04-1.75,4.7-2.91,3-6.53,1.35-7.73,2.1-.18.11-.81,2.23-1.3,2.91-2.58,3.55-5.78,4.58-9.83,2.71-1.1-.51-3.56-2.78-3.91-2.84-1.02-.18-3.46,3.4-8.47,1.75-3.85-1.27-3.65-4.84-4.61-5.5-.77-.53-4.04.71-7.05-1.35-2.68-1.84-2.89-5.35-3.14-5.56-.66-.57-6.73,1.18-9.05-3.58-.5-1.03-.85-4.18-1.01-4.33-.07-.06-1.04.55-1.8.44-3.78-.56-7.11-3.24-6.98-7.36.05-1.44,1.53-3.91,1.42-4.5-.42-2.21-7.3-2.59-3.84-7.09,2.12-.15,5.31,3.64,6.95,3.41.41-.06,2.07-4.47,6.7-4.34s6.91,5.38,7.38,5.4c.19,0,1.82-1.44,3.43-1.63,4.33-.5,7.47,1.92,8.5,5.99.2.8.03,2.85.13,2.95.28.28,4.27-1.02,6.98,2.84,2.36,3.36.64,5.9.88,6.13.14.14,2.75.47,3.77,1.02s2.32,2.23,2.77,2.31c.75.12,1.47-1.44,3.16-.99,3.48.93,9.16,10.64,13.61,6.67,6.22-5.56-11.29-12.15-11.32-16-.01-1.5,1.79-2.61,3.15-1.68l13.89,11.38c4.71,1.44,7.57-3.61,4.61-6.86-2.15-2.37-14.3-10.59-14.47-12.49-.08-.94,1.63-2.24,2.44-2.24,2.01,0,14.92,13.69,18.67,14.3s5.86-3.89,3.99-6.85c-10.52-9.69-22.08-18.34-33.06-27.55-1.53-1.45,1.14-2.62,2.51-2.54l30.99,25.21c1.73-.46,6.68-5.65,8.07-4.77.66.82,1.51,2.08.86,3.12-.44.7-5.47,3.41-5.84,4.03ZM45.83,56.18c-1.23.34-6.23,6.86-6.5,8.19-.51,2.5,2.66,5.07,5.28,3.54.73-.42,4.98-5.91,5.19-6.6.76-2.52-1.06-5.93-3.97-5.12ZM57.04,60.15c-1.09.33-8.17,9.74-8.58,11.09-.8,2.62,1.71,5.64,4.27,4.84,1.5-.47,9-9.94,9.4-11.42.92-3.44-1.85-5.48-5.09-4.51ZM66.04,68.54c-1.44.3-7,7.42-7.46,8.85-1.27,3.9,2.1,7.39,5.33,4.76.85-.69,6.26-8.22,6.52-9.22.8-2.98-1.47-5.01-4.4-4.4ZM69.13,87.95c1.09,1.09,3.7.96,4.94-.13,1.95-1.73,5.23-6.58,2.78-8.98-3.71-3.62-10.77,6.06-7.71,9.11ZM81.91,80.23c1.05,2.03-2.36,6-2.18,6.94.39,1.98,6.7,5.08,8.62.9,1.65-3.6-4.18-5.96-6.44-7.84Z"/>
      <path class="cls-1" d="M109.89,20.23c.22.16,1.28,2.76,1.76,3.32-2.42.44-5.13.89-7.59.58-6.69-.83-14.63-9.21-21.49-7.48-5.04,1.27-6.77,4.76-9.18,8.78-2.01,3.34-5.84,9.66-7.26,12.99-1.32,3.1,2.92,3.99,5.25,3.54.98-.19,3.59-1.67,4.37-2.38,2.14-1.95,3.68-8.64,6.89-6.52,2.7,1.8-4.3,9.47-6.07,10.7-4.45,3.11-14.39,2.58-14.37-4.21,0-3.47,10.5-19.04,9.59-19.92-9.35-2.25-14.92,8.84-23.57,6.16.73-4.63,2.09-2.73,5.08-3.61,5.38-1.59,8.06-6.4,15.97-6.53,1.85-.03,4.34,1.07,5.62.91,1.42-.18,3.73-3.27,7.85-3.66,9.68-.93,14.54,6.14,22.01,7.72,1.8.38,4.92-.54,5.13-.39Z"/>
    </g>
  </g>
</svg>